# xmcd CD database file
#
# Track frame offsets:
#	150
#	17339
#	30263
#	45732
#	56263
#	70835
#	83992
#	100979
#	115189
#	131269
#	145556
#	158738
#	179036
#	191938
#	204765
#	215098
#	222916
#	238410
#	256551
#	276106
#	289920
#	307842
#	323545
#	345142
#
# Disc length: 4783 seconds
#
# Revision: 1
# Processed by: cddbd v1.5.2PL0 Copyright (c) Steve Scherf et al.
# Submitted via: CDex 1.70beta2
#
DISCID=4c12ad18
DTITLE=Serginho and Marcelo - Woods 16_11_08 - Os sucessos das baladas - ao vivo
DYEAR=2008
DGENRE=Country
TTITLE0=Comendo Água
TTITLE1=Ciumenta
TTITLE2=Vamos Fazer Festa
TTITLE3=Festa Louca
TTITLE4=Borboletas
TTITLE5=Sufoco
TTITLE6=Vem Me Dengar
TTITLE7=Castelo De Areia
TTITLE8=Vou Te Amar
TTITLE9=Tem Que Ser Você
TTITLE10=De Tanto Te Querer
TTITLE11=Bala De Prata
TTITLE12=Mala Pronta
TTITLE13=Desejos - Que Se Chama Amor
TTITLE14=Magia
TTITLE15=8 Segundos
TTITLE16=Brinca De Ser Feliz
TTITLE17=Falando Sério
TTITLE18=Pode Chorar
TTITLE19=Você De Volta
TTITLE20=Pega e Não Se Apega
TTITLE21=Qual o Seu Medo
TTITLE22=Gosto De Mulher, Meu Amigo, De Pinga
TTITLE23=Beijar e Tchau, Tchau
EXTD=YEAR: 2008
EXTT0=
EXTT1=
EXTT2=
EXTT3=
EXTT4=
EXTT5=
EXTT6=
EXTT7=
EXTT8=
EXTT9=
EXTT10=
EXTT11=
EXTT12=
EXTT13=
EXTT14=
EXTT15=
EXTT16=
EXTT17=
EXTT18=
EXTT19=
EXTT20=
EXTT21=
EXTT22=
EXTT23=
PLAYORDER=
